<svg viewBox="0 0 16 16" fill="none" xmlns="http://www.w3.org/2000/svg">
    <path fill-rule="evenodd" clip-rule="evenodd" d="M8 0C3.58 0 0 3.58 0 8.02c0 3.54 2.27 6.53 5.43 7.59.4.08.54-.17.54-.38 0-.19-.01-.82-.01-1.49-2.21.48-2.67-.95-2.67-.95-.36-.93-.88-1.17-.88-1.17-.72-.49.05-.49.05-.49.8.05 1.22.82 1.22.82.71 1.22 1.86.87 2.32.66.07-.52.28-.87.5-1.07-1.76-.19-3.62-.88-3.62-3.95 0-.87.32-1.59.82-2.15-.08-.2-.36-1.02.08-2.12 0 0 .67-.21 2.19.82.64-.18 1.32-.27 2-.27.68 0 1.36.09 2 .27 1.52-1.03 2.19-.82 2.19-.82.44 1.1.16 1.92.08 2.12.5.56.82 1.28.82 2.15 0 3.07-1.86 3.76-3.63 3.95.29.25.54.73.54 1.48 0 1.07-.01 1.93-.01 2.2 0 .21.14.46.55.38C13.73 14.55 16 11.56 16 8.02 16 3.58 12.42 0 8 0z" fill="white"/>
</svg>